<?xml version="1.0" encoding="UTF-8"?>
<svg width="752pt" height="752pt" version="1.1" viewBox="0 0 752 752" xmlns="http://www.w3.org/2000/svg">
 <path d="m178.49 391.05h33.039c6.9766 79.297 70.488 142.44 149.42 149.42v33.039c0 8.0781 6.6094 15.051 15.051 15.051 8.0781 0 15.051-6.6094 15.051-15.051v-33.039c79.297-6.9766 142.44-70.488 149.42-149.42h33.039c8.0781 0 15.051-6.6094 15.051-15.051 0-8.0781-6.6094-15.051-15.051-15.051h-33.039c-6.9766-79.297-70.488-142.44-149.42-149.42v-33.039c0-8.0781-6.6094-15.051-15.051-15.051-8.0781 0-15.051 6.6094-15.051 15.051v33.039c-79.297 6.9766-142.44 70.488-149.42 149.42h-33.039c-8.4453 0-15.051 6.6094-15.051 15.051s6.9727 15.051 15.051 15.051zm123.72-30.105h-60.574c6.9766-62.777 56.902-112.7 119.31-119.31v60.574c0 8.0781 6.6094 15.051 15.051 15.051 8.0781 0 15.051-6.6094 15.051-15.051l0.003907-60.574c62.777 6.9766 112.7 56.902 119.31 119.31h-60.574c-8.0781 0-15.051 6.6094-15.051 15.051 0 8.0781 6.6094 15.051 15.051 15.051h60.574c-6.9766 62.777-56.902 112.7-119.31 119.31v-60.57c0-8.0781-6.6094-15.051-15.051-15.051-8.0781 0-15.051 6.6094-15.051 15.051v60.574c-62.777-6.9766-112.7-56.902-119.31-119.31h60.574c8.0781 0 15.051-6.6094 15.051-15.051-0.003906-8.0781-6.9766-15.055-15.055-15.055z"/>
</svg>
